<svg width="40" height="46" viewBox="0 0 40 46" fill="none" xmlns="http://www.w3.org/2000/svg">
<rect width="40" height="46" rx="5" fill="#FFE031"/>
<path d="M23.1999 31H16.7199C15.3999 31 14.3599 29.92 14.3599 28.64V21.4C14.3599 21.16 14.5199 21 14.7599 21C14.9999 21 15.1599 21.16 15.1599 21.4V28.64C15.1599 29.52 15.8799 30.2 16.7199 30.2H23.1999C24.0799 30.2 24.7599 29.48 24.7599 28.64V21.4C24.7599 21.16 24.9199 21 25.1599 21C25.3999 21 25.5599 21.16 25.5599 21.4V28.64C25.5599 29.92 24.4799 31 23.1999 31Z" fill="#414141"/>
<path d="M25.32 16.96H22.28C22.08 15.84 21.12 15 19.96 15C18.8 15 17.84 15.84 17.64 16.96H14.6C13.68 16.96 12.96 17.68 12.96 18.6C12.96 19.52 13.68 20.2 14.6 20.2H25.36C26.28 20.2 27 19.48 27 18.56C27 17.64 26.24 16.96 25.32 16.96ZM19.96 15.8C20.68 15.8 21.28 16.28 21.44 16.96H18.44C18.64 16.28 19.24 15.8 19.96 15.8ZM25.32 19.4H14.6C14.16 19.4 13.76 19.04 13.76 18.56C13.76 18.12 14.12 17.72 14.6 17.72H25.36C25.8 17.72 26.2 18.08 26.2 18.56C26.16 19.04 25.8 19.4 25.32 19.4Z" fill="#414141"/>
<path d="M17.1598 29.0401C16.9198 29.0401 16.7598 28.8801 16.7598 28.6401V21.9601C16.7598 21.7201 16.9198 21.5601 17.1598 21.5601C17.3998 21.5601 17.5598 21.7201 17.5598 21.9601V28.6401C17.5598 28.8401 17.3598 29.0401 17.1598 29.0401Z" fill="#414141"/>
<path d="M22.7599 29.0401C22.5199 29.0401 22.3599 28.8801 22.3599 28.6401V21.9601C22.3599 21.7201 22.5199 21.5601 22.7599 21.5601C22.9999 21.5601 23.1599 21.7201 23.1599 21.9601V28.6401C23.1599 28.8401 22.9599 29.0401 22.7599 29.0401Z" fill="#414141"/>
<path d="M19.9601 29.0401C19.7201 29.0401 19.5601 28.8801 19.5601 28.6401V21.9601C19.5601 21.7201 19.7201 21.5601 19.9601 21.5601C20.2001 21.5601 20.3601 21.7201 20.3601 21.9601V28.6401C20.3601 28.8401 20.1601 29.0401 19.9601 29.0401Z" fill="#414141"/>
</svg>
