<svg width="16" height="16" viewBox="0 0 16 16" fill="none" xmlns="http://www.w3.org/2000/svg">
<path d="M11.5646 1.98419C10.2851 0.704656 8.58394 0 6.77441 0C4.96488 0 3.26369 0.704656 1.98419 1.98419C0.704656 3.26369 0 4.96488 0 6.77437C0 8.58391 0.704656 10.2851 1.98419 11.5646C3.26369 12.8441 4.96491 13.5488 6.77441 13.5488C8.58391 13.5488 10.2851 12.8441 11.5646 11.5646C12.8441 10.2851 13.5488 8.58391 13.5488 6.77437C13.5488 4.96488 12.8441 3.26369 11.5646 1.98419ZM6.77438 12.2561C3.75172 12.2561 1.29263 9.79703 1.29263 6.77437C1.29263 3.75172 3.75175 1.29262 6.77441 1.29262C9.79706 1.29262 12.2561 3.75172 12.2561 6.77437C12.2561 9.79703 9.79703 12.2561 6.77438 12.2561Z" fill="#A7A7A7"/>
<path d="M14.8292 15.0045L10.9955 11.1708C10.7678 10.9431 10.3985 10.9431 10.1708 11.1708C9.94307 11.3986 9.94307 11.7678 10.1708 11.9955L14.0045 15.8292C14.1183 15.9431 14.2676 16 14.4168 16C14.5661 16 14.7154 15.9431 14.8292 15.8292C15.0569 15.6014 15.0569 15.2322 14.8292 15.0045Z" fill="#A7A7A7"/>
</svg>
