<svg width="10" height="9" viewBox="0 0 10 9" fill="none" xmlns="http://www.w3.org/2000/svg">
<path d="M5.38516 9C5.28315 9 5.18531 8.96049 5.11318 8.89017C5.04104 8.81984 5.00052 8.72446 5.00052 8.625C5.00052 8.52554 5.04104 8.43016 5.11318 8.35983C5.18531 8.28951 5.28315 8.25 5.38516 8.25C6.24659 8.25013 7.08313 7.96835 7.76074 7.44981C8.43835 6.93126 8.91781 6.20598 9.1223 5.39016C9.32678 4.57434 9.24444 3.71522 8.88849 2.95045C8.53254 2.18568 7.92357 1.55954 7.15916 1.17234C6.39475 0.785148 5.51914 0.659317 4.67265 0.815013C3.82615 0.970709 3.05777 1.39892 2.49061 2.03103C1.92345 2.66314 1.59035 3.46256 1.54468 4.3012C1.49902 5.13984 1.74342 5.96915 2.23874 6.65625C2.29714 6.73739 2.32021 6.83777 2.30291 6.93545C2.28562 7.03312 2.22935 7.12015 2.14643 7.1775C2.10509 7.20628 2.05831 7.22678 2.00879 7.23784C1.95927 7.24889 1.908 7.25028 1.85794 7.24191C1.80787 7.23354 1.76 7.21559 1.71709 7.18909C1.67417 7.16258 1.63707 7.12806 1.60792 7.0875C1.01357 6.26303 0.720283 5.26793 0.775038 4.26163C0.829793 3.25532 1.22942 2.29606 1.90991 1.53752C2.59039 0.778976 3.51234 0.265066 4.52804 0.0781192C5.54375 -0.108828 6.59442 0.0420098 7.51173 0.506465C8.42905 0.970921 9.15991 1.72211 9.58722 2.63969C10.0145 3.55727 10.1136 4.58812 9.86846 5.5671C9.62335 6.54608 9.04827 7.41651 8.23538 8.03895C7.42248 8.6614 6.41881 8.99982 5.38516 9Z" fill="#A7A7A7"/>
<path d="M2.30789 7.5H0.384648C0.282633 7.5 0.184796 7.46049 0.112661 7.39016C0.0405253 7.31984 0 7.22445 0 7.125C0 7.02554 0.0405253 6.93016 0.112661 6.85983C0.184796 6.78951 0.282633 6.75 0.384648 6.75H1.92324V5.25C1.92324 5.15054 1.96377 5.05516 2.0359 4.98483C2.10804 4.91451 2.20587 4.875 2.30789 4.875C2.4099 4.875 2.50774 4.91451 2.57988 4.98483C2.65201 5.05516 2.69254 5.15054 2.69254 5.25V7.125C2.69254 7.22445 2.65201 7.31984 2.57988 7.39016C2.50774 7.46049 2.4099 7.5 2.30789 7.5Z" fill="#A7A7A7"/>
</svg>
