<svg width="68" height="12" viewBox="0 0 68 12" fill="none" xmlns="http://www.w3.org/2000/svg">
<path opacity="0.5" d="M6 0L7.34708 4.1459H11.7063L8.17963 6.7082L9.52671 10.8541L6 8.2918L2.47329 10.8541L3.82037 6.7082L0.293661 4.1459H4.65292L6 0Z" fill="#FFE031"/>
<path opacity="0.5" d="M20 0L21.3471 4.1459H25.7063L22.1796 6.7082L23.5267 10.8541L20 8.2918L16.4733 10.8541L17.8204 6.7082L14.2937 4.1459H18.6529L20 0Z" fill="#FFE031"/>
<path opacity="0.5" d="M34 0L35.3471 4.1459H39.7063L36.1796 6.7082L37.5267 10.8541L34 8.2918L30.4733 10.8541L31.8204 6.7082L28.2937 4.1459H32.6529L34 0Z" fill="#FFE031"/>
<path opacity="0.5" d="M48 0L49.3471 4.1459H53.7063L50.1796 6.7082L51.5267 10.8541L48 8.2918L44.4733 10.8541L45.8204 6.7082L42.2937 4.1459H46.6529L48 0Z" fill="#A7A7A7"/>
<path d="M62 0L63.3471 4.1459H67.7063L64.1796 6.7082L65.5267 10.8541L62 8.2918L58.4733 10.8541L59.8204 6.7082L56.2937 4.1459H60.6529L62 0Z" fill="#A7A7A7"/>
</svg>
