<svg width="32" height="32" viewBox="0 0 32 32" fill="none" xmlns="http://www.w3.org/2000/svg">
<g clip-path="url(#clip0_420_1038)">
<path d="M17.0002 28C16.735 28 16.4806 27.8947 16.2931 27.7071C16.1056 27.5196 16.0002 27.2652 16.0002 27C16.0002 26.7348 16.1056 26.4804 16.2931 26.2929C16.4806 26.1054 16.735 26 17.0002 26C19.2397 26.0004 21.4146 25.2489 23.1762 23.8662C24.9378 22.4834 26.1843 20.5493 26.7159 18.3738C27.2475 16.1983 27.0335 13.9073 26.1081 11.8679C25.1827 9.8285 23.5995 8.15877 21.6122 7.12625C19.6249 6.09373 17.3485 5.75818 15.1478 6.17337C12.9471 6.58856 10.9495 7.73045 9.47501 9.41608C8.00052 11.1017 7.13454 13.2335 7.01581 15.4699C6.89708 17.7062 7.53249 19.9177 8.82021 21.75C8.97204 21.9664 9.03202 22.2341 8.98704 22.4945C8.94207 22.755 8.7958 22.9871 8.58021 23.14C8.47273 23.2167 8.35112 23.2714 8.22239 23.3009C8.09366 23.3304 7.96036 23.3341 7.8302 23.3118C7.70003 23.2895 7.57558 23.2416 7.46402 23.1709C7.35246 23.1002 7.256 23.0082 7.18021 22.9C5.63504 20.7014 4.87255 18.0478 5.0149 15.3643C5.15725 12.6809 6.19621 10.1228 7.96531 8.10005C9.73441 6.07727 12.1313 4.70684 14.7719 4.20832C17.4125 3.70979 20.144 4.11203 22.5288 5.35058C24.9136 6.58912 26.8137 8.5923 27.9246 11.0392C29.0356 13.4861 29.293 16.235 28.6558 18.8456C28.0185 21.4562 26.5235 23.7774 24.4101 25.4372C22.2968 27.0971 19.6875 27.9995 17.0002 28Z" fill="#414141"/>
<path d="M9 24H4C3.73478 24 3.48043 23.8946 3.29289 23.7071C3.10536 23.5196 3 23.2652 3 23C3 22.7348 3.10536 22.4804 3.29289 22.2929C3.48043 22.1054 3.73478 22 4 22H8V18C8 17.7348 8.10536 17.4804 8.29289 17.2929C8.48043 17.1054 8.73478 17 9 17C9.26522 17 9.51957 17.1054 9.70711 17.2929C9.89464 17.4804 10 17.7348 10 18V23C10 23.2652 9.89464 23.5196 9.70711 23.7071C9.51957 23.8946 9.26522 24 9 24Z" fill="#414141"/>
<path d="M13.9999 20C13.8683 20.0008 13.7379 19.9755 13.616 19.9258C13.4942 19.876 13.3834 19.8027 13.2899 19.71C13.1962 19.617 13.1218 19.5064 13.071 19.3846C13.0203 19.2627 12.9941 19.132 12.9941 19C12.9941 18.868 13.0203 18.7373 13.071 18.6154C13.1218 18.4936 13.1962 18.383 13.2899 18.29L15.9999 15.59V11C15.9999 10.7348 16.1053 10.4804 16.2928 10.2929C16.4804 10.1054 16.7347 10 16.9999 10C17.2652 10 17.5195 10.1054 17.707 10.2929C17.8946 10.4804 17.9999 10.7348 17.9999 11V16C18.0007 16.1316 17.9755 16.2621 17.9257 16.3839C17.8759 16.5057 17.8026 16.6166 17.7099 16.71L14.7099 19.71C14.6165 19.8027 14.5057 19.876 14.3838 19.9258C14.262 19.9755 14.1315 20.0008 13.9999 20Z" fill="#414141"/>
</g>
<defs>
<clipPath id="clip0_420_1038">
<rect width="32" height="32" fill="white"/>
</clipPath>
</defs>
</svg>
