<svg width="26" height="26" viewBox="0 0 26 26" fill="none" xmlns="http://www.w3.org/2000/svg">
<path d="M18.7925 3.2243C16.7133 1.14507 13.9489 0 11.0084 0C8.06792 0 5.30349 1.14507 3.2243 3.2243C1.14507 5.30349 0 8.06792 0 11.0084C0 13.9488 1.14507 16.7133 3.2243 18.7925C5.30349 20.8717 8.06797 22.0168 11.0084 22.0168C13.9488 22.0168 16.7133 20.8717 18.7925 18.7925C20.8717 16.7133 22.0168 13.9488 22.0168 11.0084C22.0168 8.06792 20.8717 5.30349 18.7925 3.2243ZM11.0084 19.9162C6.09654 19.9162 2.10052 15.9202 2.10052 11.0084C2.10052 6.09654 6.09659 2.10052 11.0084 2.10052C15.9202 2.10052 19.9162 6.09654 19.9162 11.0084C19.9162 15.9202 15.9202 19.9162 11.0084 19.9162Z" fill="#414141"/>
<path d="M24.0975 24.3822L17.8677 18.1526C17.4976 17.7825 16.8976 17.7825 16.5275 18.1526C16.1575 18.5226 16.1575 19.1227 16.5275 19.4927L22.7572 25.7224C22.9423 25.9075 23.1848 26 23.4274 26C23.6699 26 23.9124 25.9075 24.0975 25.7224C24.4675 25.3523 24.4675 24.7523 24.0975 24.3822Z" fill="#414141"/>
</svg>
