<svg width="282" height="247" viewBox="0 0 282 247" fill="none" xmlns="http://www.w3.org/2000/svg">
<g clip-path="url(#clip0_408_359)">
<path d="M282 245.698H91.7021V246.459H282V245.698Z" fill="#414141"/>
<path d="M246.486 116.371C246.852 116.769 247.124 117.235 247.284 117.737C247.443 118.24 247.487 118.768 247.413 119.287C247.339 119.806 247.147 120.305 246.852 120.751C246.556 121.197 246.162 121.581 245.697 121.878L226.002 134.407L217.33 139.764C216.837 140.068 216.24 140.192 215.655 140.111C215.069 140.029 214.537 139.749 214.162 139.325C213.944 139.077 213.786 138.789 213.699 138.479C213.613 138.169 213.6 137.846 213.662 137.531C213.723 137.217 213.858 136.918 214.056 136.656C214.254 136.395 214.512 136.176 214.81 136.015L223.21 131.496L237.869 118.559L228.445 109.18L235.426 104.329L246.486 116.371Z" fill="#A0616A"/>
<path d="M200.174 234.342H195.356L192.495 197.472L204.711 197.149L200.174 234.342Z" fill="#A0616A"/>
<path d="M200.523 246.308C199.238 246.852 198.162 242.45 197.079 243.437C194.048 246.197 189.407 246.798 185.362 245.593L186.777 245.578C186.533 245.506 186.308 245.388 186.114 245.232C185.921 245.076 185.763 244.885 185.652 244.671C185.54 244.458 185.476 244.225 185.465 243.988C185.453 243.75 185.493 243.513 185.583 243.291C185.691 243.024 185.867 242.786 186.096 242.597C186.325 242.408 186.6 242.273 186.898 242.204L190.121 241.457L195.182 233.21L200.348 232.887C201.5 234.247 202.304 235.832 202.699 237.522C203.095 239.212 203.072 240.963 202.631 242.644C202.162 244.417 201.439 245.921 200.523 246.308Z" fill="#2F2E41"/>
<path d="M232.25 234.342H227.433L224.572 197.473L237.137 195.209L232.25 234.342Z" fill="#A0616A"/>
<path d="M232.599 246.309C231.315 246.852 230.239 242.451 229.155 243.437C226.125 246.197 221.483 246.798 217.438 245.593L218.854 245.578C218.61 245.506 218.384 245.388 218.191 245.232C217.997 245.076 217.84 244.885 217.728 244.672C217.616 244.458 217.553 244.225 217.541 243.988C217.529 243.75 217.57 243.513 217.66 243.291C217.767 243.024 217.943 242.786 218.172 242.597C218.401 242.408 218.676 242.273 218.974 242.204L222.197 241.457L227.258 233.21L232.774 232.563L232.913 232.775C233.979 234.367 234.667 236.152 234.93 238.01C235.193 239.868 235.025 241.757 234.437 243.55C233.979 244.912 233.354 245.989 232.599 246.309Z" fill="#2F2E41"/>
<path d="M237.713 105.163C233.283 105.734 230.216 107.982 228.966 112.467L220.823 98.5347C220.34 97.6493 220.218 96.6323 220.478 95.6701C220.739 94.7079 221.365 93.865 222.242 93.2957C223.172 92.6915 224.317 92.4398 225.441 92.5923C226.566 92.7448 227.584 93.2899 228.289 94.1159L237.713 105.163Z" fill="#FFE031"/>
<path d="M246.246 193.592C226.446 201.709 206.183 202.708 185.515 197.473C193.062 170.348 201.974 145.822 201.919 125.674L222.163 124.057L225.28 128.636C232.675 139.499 237.78 151.564 240.323 164.19L246.246 193.592Z" fill="#2F2E41"/>
<path d="M213.088 83.9538C218.871 83.9538 223.559 79.6098 223.559 74.2513C223.559 68.8928 218.871 64.5488 213.088 64.5488C207.305 64.5488 202.617 68.8928 202.617 74.2513C202.617 79.6098 207.305 83.9538 213.088 83.9538Z" fill="#A0616A"/>
<path d="M224.606 91.3923L211.692 92.0391L209.598 81.3664L220.069 79.7495L224.606 91.3923Z" fill="#A0616A"/>
<path d="M223.21 125.674L209.062 126.044L201.919 126.968C198.413 116.236 195.461 105.529 202.617 96.5668L210.994 88.8049L223.559 88.4814L223.725 88.5696C225.721 89.6289 227.267 91.2865 228.11 93.2693C228.953 95.2521 229.041 97.4417 228.361 99.4774C225.243 108.866 223.24 117.733 223.21 125.674Z" fill="#FFE031"/>
<path d="M201.57 155.752L200.693 166.866C200.646 167.461 200.368 168.02 199.911 168.441C199.454 168.862 198.848 169.115 198.206 169.155C197.835 169.178 197.464 169.129 197.115 169.012C196.766 168.894 196.448 168.71 196.18 168.472C195.912 168.235 195.7 167.947 195.559 167.63C195.417 167.312 195.348 166.97 195.357 166.626L195.637 155.752L204.362 125.027L204.711 106.269L214.484 105.946L213.786 127.615L201.57 155.752Z" fill="#A0616A"/>
<path d="M215.531 107.563C211.388 106.002 207.518 106.525 204.013 109.827L204.494 93.9893C204.554 92.9988 204.998 92.0618 205.743 91.3498C206.489 90.6378 207.486 90.1986 208.553 90.1127C209.685 90.0215 210.812 90.3348 211.702 90.9885C212.593 91.6421 213.181 92.5867 213.344 93.6286L215.531 107.563Z" fill="#FFE031"/>
<path d="M235.252 117.427H203.141C210.631 99.0472 213.047 81.9482 203.141 67.298C203.311 62.8977 209.401 59.0831 214.131 59.5046C219.718 60.0023 227.224 63.8061 228.271 68.9151L235.252 117.427Z" fill="#2F2E41"/>
<path d="M132.915 58.6964H131.451V21.5179C131.451 18.6921 130.85 15.894 129.683 13.2834C128.516 10.6727 126.806 8.30056 124.649 6.30243C122.493 4.30431 119.933 2.71931 117.115 1.63793C114.298 0.556562 111.278 -8.46808e-06 108.229 0H23.2223C20.1727 -6.23961e-06 17.1529 0.556568 14.3355 1.63794C11.518 2.71932 8.95802 4.30431 6.80164 6.30244C4.64525 8.30056 2.93471 10.6727 1.76768 13.2834C0.600656 15.894 -3.36695e-06 18.6921 0 21.5179V225.482C-2.40496e-06 228.308 0.600655 231.106 1.76768 233.717C2.93471 236.327 4.64525 238.699 6.80164 240.697C8.95802 242.696 11.518 244.281 14.3355 245.362C17.1529 246.443 20.1727 247 23.2223 247H108.229C111.278 247 114.298 246.443 117.115 245.362C119.933 244.281 122.493 242.696 124.649 240.698C126.806 238.699 128.516 236.327 129.683 233.717C130.85 231.106 131.451 228.308 131.451 225.482V85.1607H132.915V58.6964Z" fill="#414141"/>
<path d="M109.166 5.59814H98.0696C98.5799 6.75738 98.7747 8.0151 98.6368 9.26052C98.499 10.5059 98.0327 11.7008 97.279 12.7399C96.5254 13.779 95.5076 14.6305 94.3152 15.2192C93.1228 15.8079 91.7924 16.1159 90.4413 16.116H41.7422C40.3911 16.1159 39.0608 15.8079 37.8684 15.2192C36.676 14.6305 35.6581 13.779 34.9045 12.7399C34.1508 11.7008 33.6845 10.5059 33.5467 9.26052C33.4088 8.0151 33.6036 6.75738 34.1139 5.59814H23.7501C21.4727 5.59814 19.2176 6.01378 17.1135 6.82134C15.0095 7.6289 13.0977 8.81255 11.4874 10.3047C9.87699 11.7969 8.59958 13.5684 7.72805 15.518C6.85653 17.4676 6.40796 19.5572 6.40796 21.6675V225.332C6.40796 227.443 6.85653 229.532 7.72805 231.482C8.59957 233.431 9.87698 235.203 11.4873 236.695C13.0977 238.187 15.0095 239.371 17.1135 240.178C19.2176 240.986 21.4727 241.402 23.7501 241.402H109.166C111.443 241.402 113.698 240.986 115.802 240.178C117.906 239.371 119.818 238.187 121.429 236.695C123.039 235.203 124.316 233.431 125.188 231.482C126.059 229.532 126.508 227.443 126.508 225.332V21.6674C126.508 17.4056 124.681 13.3183 121.428 10.3047C118.176 7.29114 113.765 5.59814 109.166 5.59814Z" fill="white"/>
<path d="M111.509 37.4121H21.4065V109.023H111.509V37.4121Z" fill="#A7A7A7"/>
<path d="M48.1441 123.956C51.7853 123.956 54.737 121.221 54.737 117.847C54.737 114.473 51.7853 111.738 48.1441 111.738C44.503 111.738 41.5513 114.473 41.5513 117.847C41.5513 121.221 44.503 123.956 48.1441 123.956Z" fill="#FFE031"/>
<path d="M51.441 117.338H48.694V114.793H47.5952V117.338H44.8481V118.357H47.5952V120.902H48.694V118.357H51.441V117.338Z" fill="white"/>
<path d="M82.94 123.956C86.5812 123.956 89.5329 121.221 89.5329 117.847C89.5329 114.473 86.5812 111.738 82.94 111.738C79.2989 111.738 76.3472 114.473 76.3472 117.847C76.3472 121.221 79.2989 123.956 82.94 123.956Z" fill="#FFE031"/>
<path d="M86.2363 118.357V117.338H79.6435V118.357H86.2363Z" fill="white"/>
<path d="M69.8183 46.3428H62.6979C62.4476 46.3428 62.2074 46.4349 62.0304 46.599C61.8534 46.763 61.7539 46.9855 61.7539 47.2175V50.1135C61.7539 50.3455 61.8534 50.568 62.0304 50.732C62.2074 50.896 62.4476 50.9882 62.6979 50.9882H63.8779V55.3274H68.6383V50.9882H69.8183C70.0687 50.9882 70.3088 50.896 70.4858 50.732C70.6628 50.568 70.7623 50.3455 70.7623 50.1135V47.2175C70.7623 46.9855 70.6628 46.763 70.4858 46.599C70.3088 46.4349 70.0687 46.3428 69.8183 46.3428Z" fill="#FFE031"/>
<path d="M76.9498 72.8472C72.5891 66.9346 70.3598 59.8947 70.5813 52.7362C70.5853 52.5711 70.5274 52.4097 70.4176 52.2796C70.3077 52.1494 70.1526 52.0585 69.9787 52.0223V50.771H62.4586V52.0049H62.355C62.2537 52.0051 62.1534 52.0237 62.0598 52.0597C61.9662 52.0958 61.8812 52.1485 61.8097 52.215C61.7381 52.2815 61.6814 52.3604 61.6427 52.4472C61.6041 52.534 61.5842 52.627 61.5844 52.7209C61.5844 52.7382 61.5851 52.7556 61.5865 52.7729C62.1789 60.4253 60.1784 67.2878 55.5849 73.3604C55.3206 73.7094 55.1855 74.1284 55.2 74.5545L56.0223 98.1233C56.0421 98.649 56.2802 99.1473 56.687 99.5142C57.0937 99.8811 57.6377 100.088 58.2054 100.092H75.2146C75.7887 100.088 76.3383 99.8762 76.7463 99.5019C77.1544 99.1276 77.3885 98.6205 77.3989 98.0885L77.7158 75.2052C77.7252 74.3653 77.458 73.5427 76.9498 72.8472Z" fill="#414141"/>
<path opacity="0.2" d="M68.3339 47.2866C68.3339 47.7871 68.1193 48.2672 67.7373 48.6211C67.3554 48.975 66.8373 49.1738 66.2972 49.1738C65.757 49.1738 65.239 48.975 64.857 48.6211C64.4751 48.2672 64.2605 47.7871 64.2605 47.2866" fill="black"/>
<path d="M74.2576 80.6759H72.1979C72.0013 79.4936 71.3545 78.4155 70.3745 77.6367C69.3945 76.8578 68.1461 76.4297 66.8551 76.4297C65.564 76.4297 64.3156 76.8578 63.3356 77.6367C62.3557 78.4155 61.7089 79.4936 61.5122 80.6759H59.4524C59.2332 80.6759 59.0167 80.7198 58.8175 80.8046C58.6184 80.8895 58.4415 81.0132 58.2988 81.1673C58.1561 81.3214 58.051 81.5023 57.9908 81.6976C57.9306 81.8928 57.9167 82.0978 57.95 82.2985L60.1873 95.7736H73.0341L75.7516 82.3439C75.7927 82.1405 75.785 81.9312 75.729 81.7309C75.6729 81.5306 75.5699 81.3441 75.4273 81.1849C75.2846 81.0256 75.1059 80.8975 74.9037 80.8095C74.7015 80.7215 74.4809 80.6759 74.2576 80.6759V80.6759Z" fill="#FFE031"/>
<path d="M111.509 138.211H21.4065V209.822H111.509V138.211Z" fill="#A7A7A7"/>
<path d="M48.1441 224.755C51.7853 224.755 54.737 222.02 54.737 218.646C54.737 215.272 51.7853 212.537 48.1441 212.537C44.503 212.537 41.5513 215.272 41.5513 218.646C41.5513 222.02 44.503 224.755 48.1441 224.755Z" fill="#FFE031"/>
<path d="M51.441 218.137H48.694V215.592H47.5952V218.137H44.8481V219.155H47.5952V221.701H48.694V219.155H51.441V218.137Z" fill="white"/>
<path d="M82.94 224.755C86.5812 224.755 89.5329 222.02 89.5329 218.646C89.5329 215.272 86.5812 212.537 82.94 212.537C79.2989 212.537 76.3472 215.272 76.3472 218.646C76.3472 222.02 79.2989 224.755 82.94 224.755Z" fill="#FFE031"/>
<path d="M86.2363 219.155V218.137H79.6435V219.155H86.2363Z" fill="white"/>
<path d="M84.1954 189.084L84.2451 189.084C85.9416 189.098 87.6029 188.637 89.0124 187.762C90.4219 186.887 91.5142 185.639 92.1466 184.18C94.1397 179.511 94.6064 174.401 93.4885 169.487C92.3706 164.574 89.7176 160.073 85.8598 156.546C82.002 153.02 77.1098 150.622 71.7924 149.653C66.475 148.683 60.9673 149.185 55.9551 151.094C50.943 153.004 46.6478 156.238 43.6043 160.393C40.5609 164.548 38.9037 169.44 38.8391 174.462C38.7745 179.483 40.3054 184.411 43.241 188.632C46.1767 192.853 50.3875 196.181 55.3491 198.2C56.8912 198.833 58.6036 199.019 60.2618 198.734C61.92 198.449 63.4466 197.707 64.6413 196.604C67.2039 194.217 70.2511 192.323 73.6072 191.033C76.9632 189.742 80.5618 189.08 84.1954 189.084Z" fill="white"/>
<path d="M70.0051 181.336C75.0433 181.336 79.1275 177.551 79.1275 172.883C79.1275 168.215 75.0433 164.43 70.0051 164.43C64.967 164.43 60.8828 168.215 60.8828 172.883C60.8828 177.551 64.967 181.336 70.0051 181.336Z" fill="#F9A825"/>
</g>
<defs>
<clipPath id="clip0_408_359">
<rect width="282" height="247" fill="white"/>
</clipPath>
</defs>
</svg>
