<svg width="358" height="274" viewBox="0 0 358 274" fill="none" xmlns="http://www.w3.org/2000/svg">
<g clip-path="url(#clip0_408_548)">
<path d="M5.50745 252.356C7.84693 260.36 14.6779 265.962 21.8035 270.722C22.7985 271.387 23.7937 272.036 24.7893 272.67C24.796 272.673 24.803 272.679 24.8098 272.682C24.8577 272.712 24.9057 272.743 24.9503 272.773C25.1558 272.904 25.3613 273.035 25.5651 273.164L25.4532 273.213C25.4532 273.213 25.3433 273.271 25.4635 273.223C25.4993 273.208 25.5368 273.195 25.5725 273.18C29.712 271.533 33.9251 269.766 37.0974 266.681C40.3882 263.478 42.3114 258.455 40.5294 254.247C40.2952 253.696 39.9994 253.172 39.6474 252.686C39.5028 252.482 39.3471 252.287 39.1851 252.095C38.2021 250.912 36.9174 250.008 35.463 249.477C34.0086 248.946 32.437 248.807 30.9098 249.073C29.3826 249.34 27.9549 250.002 26.7736 250.993C25.5922 251.984 24.6999 253.268 24.1882 254.712C23.6647 249.905 27.6839 245.878 31.5517 242.908C35.4212 239.938 39.8181 236.704 40.5662 231.924C40.9839 229.265 40.0461 226.687 38.3378 224.618C38.2849 224.556 38.2321 224.493 38.1776 224.432C36.098 222.022 33.1731 220.474 29.9872 220.098C24.0537 219.49 18.2903 222.588 13.9798 226.656C7.04207 233.202 2.84791 243.256 5.50745 252.356Z" fill="#F1F1F1"/>
<path d="M16.66 241.887C15.5213 243.634 14.647 245.536 14.0648 247.532C13.5724 249.316 13.3533 251.163 13.4146 253.011C13.5734 256.813 14.6559 260.522 16.571 263.826C18.0136 266.333 19.7717 268.65 21.8034 270.722C22.7984 271.386 23.7936 272.036 24.7892 272.67C24.7959 272.673 24.8029 272.679 24.8097 272.682C24.8576 272.712 24.9056 272.743 24.9502 272.773C25.1557 272.904 25.3612 273.035 25.565 273.164C25.565 273.164 25.3432 273.271 25.4634 273.223C25.4992 273.208 25.5367 273.195 25.5724 273.18C25.2014 270.18 25.5648 267.136 26.6323 264.304C27.6998 261.471 29.4402 258.932 31.7076 256.899C33.9805 254.897 36.701 253.454 39.6472 252.686C39.5027 252.482 39.347 252.287 39.1849 252.095C38.0471 252.41 36.9396 252.823 35.8755 253.33C32.0718 255.131 28.9573 258.092 26.993 261.775C25.2303 265.119 24.4716 268.89 24.8061 272.645C24.636 272.493 24.4658 272.337 24.3006 272.183C21.155 269.291 18.3611 265.972 16.4703 262.14C14.8299 258.896 14.0236 255.304 14.1226 251.679C14.2769 247.728 15.8735 244.067 18.1851 240.881C20.7186 237.481 23.7116 234.44 27.0809 231.84C30.4764 229.158 34.1919 226.896 38.1447 225.104C38.2338 225.063 38.3036 224.989 38.3395 224.899C38.3754 224.809 38.3747 224.708 38.3376 224.618C38.3113 224.538 38.2537 224.471 38.1775 224.432C38.1382 224.415 38.0957 224.407 38.053 224.409C38.0103 224.411 37.9686 224.422 37.9309 224.442C37.4429 224.663 36.9582 224.888 36.4775 225.122C32.4732 227.074 28.7304 229.509 25.3348 232.371C22.055 235.129 18.9672 238.279 16.66 241.887Z" fill="white"/>
<path d="M110.334 267.144H116.551L119.508 243.498L110.333 243.498L110.334 267.144Z" fill="#FFB7B7"/>
<path d="M108.748 265.143L120.991 265.142H120.991C123.06 265.142 125.045 265.953 126.508 267.396C127.971 268.839 128.793 270.795 128.793 272.836V273.086L108.749 273.087L108.748 265.143Z" fill="#2F2E41"/>
<path d="M76.6757 267.144H82.8925L85.8496 243.498L76.6748 243.498L76.6757 267.144Z" fill="#FFB7B7"/>
<path d="M75.0901 265.143L87.3325 265.142H87.333C89.4021 265.142 91.3864 265.953 92.8495 267.396C94.3126 268.839 95.1347 270.795 95.1348 272.836V273.086L75.0905 273.087L75.0901 265.143Z" fill="#2F2E41"/>
<path d="M74.1431 159.975V222.408L75.7458 262.713H88.9683L93.3763 186.845L102.191 218.062L107.801 261.923L123.828 261.133L113.01 159.975H74.1431Z" fill="#2F2E41"/>
<path d="M89.5145 103.864C94.8256 103.864 99.131 99.6176 99.131 94.38C99.131 89.1424 94.8256 84.8965 89.5145 84.8965C84.2034 84.8965 79.8979 89.1424 79.8979 94.38C79.8979 99.6176 84.2034 103.864 89.5145 103.864Z" fill="#FFB8B8"/>
<path d="M85.5185 106.334L82.9582 109L80.554 162.346L109.003 161.556L102.191 114.928L96.1812 109.248L93.1314 106.334H85.5185Z" fill="#FFE031"/>
<path d="M80.9546 112.161L83.1141 108.705L83.7595 116.113C83.7595 116.113 88.9684 132.709 88.5678 147.33C88.1671 161.95 90.5712 196.328 87.3657 196.723C84.1602 197.118 70.5367 197.908 70.5367 195.142C70.5367 192.376 69.7354 118.879 69.7354 118.879L80.9546 112.161Z" fill="#2F2E41"/>
<path d="M95.5357 108.705L100.989 112.952L113.01 117.298C113.01 117.298 113.01 167.877 115.414 179.732C117.818 191.586 122.226 192.772 116.616 193.167C111.007 193.562 111.407 191.586 111.407 191.586C111.407 191.586 94.979 141.007 95.7804 128.362C96.5817 115.718 94.7343 108.705 95.5357 108.705Z" fill="#2F2E41"/>
<path d="M80.4162 97.3471C80.4162 97.3471 81.2333 95.9321 81.0433 91.2049C80.8533 86.4778 88.1526 89.1514 94.2519 88.7005C100.351 88.2495 99.0601 96.5925 99.0601 96.5925C99.0601 96.5925 99.5001 96.0966 100.442 92.07C101.384 88.0434 99.2453 84.0307 99.2453 84.0307C98.6153 79.7995 95.2201 81.1556 95.2201 81.1556C96.8552 81.7834 96.5411 83.1256 96.5411 83.1256C95.1571 80.7325 91.7619 82.0886 91.7619 82.0886C87.2338 79.2864 82.6445 82.9766 82.6445 82.9766C77.1742 84.2009 80.3823 88.491 80.3823 88.491C74.881 91.2327 80.4162 97.3471 80.4162 97.3471Z" fill="#2F2E41"/>
<path d="M70.5506 189.429C70.9582 189.004 71.2664 188.496 71.4535 187.941C71.6406 187.386 71.702 186.798 71.6334 186.217C71.5648 185.636 71.3679 185.077 71.0566 184.579C70.7452 184.081 70.327 183.657 69.8313 183.336L71.5636 174.355L66.2863 171.986L64.0206 184.702C63.5288 185.559 63.3728 186.564 63.5822 187.527C63.7916 188.49 64.3518 189.343 65.1567 189.926C65.9616 190.508 66.9553 190.78 67.9494 190.688C68.9436 190.596 69.8691 190.148 70.5506 189.429V189.429Z" fill="#FFB7B7"/>
<path d="M71.7386 118.879L70.6747 118.316C70.6747 118.316 64.9269 120.46 65.3276 122.04C65.7283 123.621 62.1221 178.941 63.3241 180.917C64.5262 182.893 74.1428 181.312 74.1428 181.312L71.7386 118.879Z" fill="#2F2E41"/>
<path d="M117.481 185.704C117.018 185.339 116.641 184.878 116.378 184.354C116.115 183.83 115.971 183.255 115.958 182.671C115.944 182.086 116.061 181.505 116.299 180.97C116.538 180.435 116.893 179.957 117.338 179.572L114.363 170.914L119.257 167.847L123.285 180.132C123.892 180.914 124.188 181.888 124.115 182.87C124.043 183.852 123.608 184.774 122.893 185.46C122.177 186.147 121.231 186.551 120.234 186.596C119.236 186.641 118.257 186.324 117.481 185.704V185.704Z" fill="#FFB7B7"/>
<path d="M112.785 178.156C112.785 178.156 122.53 178.409 123.444 176.289C124.357 174.168 113.024 119.871 113.199 118.251C113.374 116.631 107.381 115.293 107.381 115.293L106.406 115.995L112.785 178.156Z" fill="#2F2E41"/>
<path d="M176.893 274H0.463071C0.340257 274 0.222473 273.952 0.13563 273.866C0.0487874 273.781 0 273.665 0 273.544C0 273.422 0.0487874 273.306 0.13563 273.221C0.222473 273.135 0.340257 273.087 0.463071 273.087H176.893C177.016 273.087 177.134 273.135 177.221 273.221C177.307 273.306 177.356 273.422 177.356 273.544C177.356 273.665 177.307 273.781 177.221 273.866C177.134 273.952 177.016 274 176.893 274Z" fill="#CBCBCB"/>
<path d="M358 190.653H195.157V90.6748H358V190.653ZM198.946 186.917H354.211V94.4113H198.946V186.917Z" fill="#E5E5E5"/>
<path d="M356.105 42.5435H197.052V138.785H356.105V42.5435Z" fill="white"/>
<path d="M356.106 116.935V111.026H334.041V92.5435H328.049V111.026H288.768V92.5435H282.775V111.026H222.189V92.5435H216.197V111.026H197.052V116.935H216.197V139.916H197.052V145.825H216.197V170.447H197.052V176.356H248.487V188.785H254.479V176.356H282.775V188.785H288.768V176.356H356.106V170.447H288.768V145.825H356.106V139.916H334.041V116.935L356.106 116.935ZM282.775 116.935V124.158H222.189V116.935H282.775ZM222.189 130.067H282.775V139.916H222.189V130.067ZM222.189 170.447V145.825H248.487V170.447L222.189 170.447ZM282.775 170.447H254.479V145.825H282.775V170.447ZM328.049 139.916H288.768V116.935H328.049V139.916Z" fill="#A7A7A7"/>
<path d="M314.679 78.335C314.679 93.9839 285.946 128.845 285.946 128.845C285.946 128.845 257.214 93.9839 257.214 78.335C257.214 70.8201 260.241 63.613 265.629 58.2991C271.018 52.9853 278.326 50 285.946 50C293.567 50 300.875 52.9853 306.263 58.2991C311.651 63.613 314.679 70.8201 314.679 78.335Z" fill="#FFE031"/>
<path d="M299.082 77.103C299.082 79.6649 298.312 82.1693 296.869 84.2994C295.425 86.4296 293.374 88.0898 290.974 89.0702C288.574 90.0506 285.933 90.3071 283.385 89.8073C280.837 89.3075 278.497 88.0738 276.66 86.2623C274.823 84.4508 273.572 82.1427 273.065 79.6301C272.558 77.1174 272.818 74.513 273.812 72.1461C274.806 69.7792 276.49 67.7562 278.65 66.3329C280.81 64.9096 283.349 64.1499 285.947 64.1499C287.672 64.1491 289.381 64.4836 290.975 65.1343C292.569 65.785 294.017 66.7391 295.237 67.942C296.457 69.145 297.424 70.5733 298.084 72.1452C298.744 73.7171 299.083 75.4018 299.082 77.103Z" fill="white"/>
<path d="M285.946 149.296C290.224 149.296 293.692 145.876 293.692 141.658C293.692 137.439 290.224 134.02 285.946 134.02C281.669 134.02 278.201 137.439 278.201 141.658C278.201 145.876 281.669 149.296 285.946 149.296Z" fill="#FFE031"/>
</g>
<defs>
<clipPath id="clip0_408_548">
<rect width="358" height="274" fill="white"/>
</clipPath>
</defs>
</svg>
