<svg width="359" height="169" viewBox="0 0 359 169" fill="none" xmlns="http://www.w3.org/2000/svg">
<path d="M72.0638 119.851C71.0059 119.852 69.9917 120.273 69.2437 121.022C68.4957 121.771 68.0749 122.786 68.0737 123.845V133.188C68.0749 134.247 68.4957 135.262 69.2437 136.01C69.9917 136.759 71.0059 137.18 72.0638 137.181H77.1248C78.1827 137.18 79.1969 136.759 79.945 136.01C80.693 135.262 81.1137 134.247 81.1149 133.188V123.845C81.1137 122.786 80.693 121.771 79.945 121.022C79.1969 120.273 78.1827 119.852 77.1248 119.851H72.0638Z" fill="#414141"/>
<path d="M165.619 137.492H160.558C159.418 137.491 158.325 137.037 157.518 136.23C156.712 135.423 156.259 134.329 156.257 133.187V123.844C156.259 122.703 156.712 121.609 157.518 120.802C158.325 119.995 159.418 119.541 160.558 119.54H165.619C166.759 119.541 167.852 119.995 168.658 120.802C169.465 121.609 169.918 122.703 169.919 123.844V133.187C169.918 134.329 169.465 135.423 168.658 136.23C167.852 137.037 166.759 137.491 165.619 137.492Z" fill="#414141"/>
<path d="M162.26 130.011H75.1114C71.1452 130.011 67.9185 127.671 67.9185 124.795V108.022L72.2441 103.462H165.969L169.453 108.031V124.795C169.453 127.671 166.227 130.011 162.26 130.011Z" fill="#CCCCCC"/>
<path d="M165.563 111.853H72.7411L71.7979 97.377L72.3981 95.8957L75.8872 87.3022H161.788L166.506 97.0606L165.563 111.853Z" fill="#CCCCCC"/>
<path d="M166.348 97.0918L165.656 107.969H145.234V99.8885L165.768 95.8921L166.348 97.0918Z" fill="white"/>
<path d="M92.7592 99.8884V107.969H72.6445L71.9551 97.4022L72.5421 95.9541L92.7592 99.8884Z" fill="white"/>
<path d="M161.27 89.7883H76.4038L85.4554 59.5902C85.8246 58.343 86.5849 57.2478 87.6239 56.4664C88.6629 55.685 89.9255 55.2588 91.2251 55.2509L147.429 54.7151C148.787 54.7019 150.111 55.144 151.189 55.9709C152.266 56.7977 153.037 57.9619 153.377 59.2778L161.27 89.7883Z" fill="#CCCCCC"/>
<path d="M154.737 86.9329L82.9235 86.0806C82.8327 86.0795 82.7434 86.0571 82.6629 86.0153C82.5823 85.9734 82.5127 85.9131 82.4596 85.8394C82.4065 85.7657 82.3714 85.6805 82.3572 85.5907C82.343 85.501 82.3501 85.4091 82.3778 85.3226L89.2623 63.8244C89.2998 63.7072 89.3735 63.605 89.4729 63.5325C89.5722 63.46 89.6919 63.4209 89.8149 63.4209H147.576C147.699 63.4209 147.819 63.46 147.918 63.5324C148.018 63.6049 148.091 63.7071 148.129 63.8242L155.297 86.1747C155.325 86.2623 155.332 86.3554 155.317 86.4462C155.302 86.5371 155.266 86.6231 155.211 86.6971C155.157 86.7712 155.085 86.8312 155.003 86.8722C154.92 86.9132 154.829 86.934 154.737 86.9329Z" fill="white"/>
<path d="M128.515 58.4001H109.159C108.996 58.4001 108.848 58.2394 108.773 57.9805C108.698 57.7155 108.709 57.4336 108.804 57.175L110.4 53.135C110.481 52.9291 110.614 52.8062 110.755 52.8062H126.919C127.06 52.8062 127.193 52.9291 127.275 53.135L128.871 57.175C128.966 57.4336 128.976 57.7155 128.902 57.9805C128.827 58.2394 128.679 58.4001 128.515 58.4001Z" fill="#FFE031"/>
<path d="M76.4572 89.1666H63.7266V86.366C63.7276 85.4607 64.0874 84.5927 64.727 83.9525C65.3667 83.3123 66.2339 82.9522 67.1385 82.9512H76.4572V89.1666Z" fill="#CCCCCC"/>
<path d="M173.956 89.1666H161.225V82.9512H170.544C171.448 82.9522 172.316 83.3123 172.955 83.9525C173.595 84.5927 173.955 85.4607 173.956 86.366V89.1666Z" fill="#CCCCCC"/>
<path d="M122.3 149.051H118.574V144.235H122.3V149.051ZM122.3 139.419H118.574V134.603H122.3V139.419Z" fill="#A7A7A7"/>
<path d="M122.3 169H118.574V164.184H122.3V169ZM122.3 159.368H118.574V154.552H122.3V159.368Z" fill="#A7A7A7"/>
<path d="M225.986 152.364H221.883L219.93 136.525H225.986V152.364Z" fill="#FFB8B8"/>
<path d="M227.032 156.345H213.802V156.177C213.804 154.811 214.347 153.501 215.312 152.535C216.278 151.568 217.586 151.025 218.952 151.023H227.032L227.032 156.345Z" fill="#2F2E41"/>
<path d="M278.894 144.583L275.377 146.698L265.553 134.127L270.744 131.006L278.894 144.583Z" fill="#FFB8B8"/>
<path d="M270.5 154.275L270.413 154.132C269.712 152.959 269.503 151.557 269.833 150.231C270.164 148.905 271.006 147.764 272.175 147.059L279.101 142.895L281.84 147.456L270.5 154.275Z" fill="#2F2E41"/>
<path d="M227.052 149.095L226.981 149.095C224.986 149.089 222.991 148.974 221.008 148.751C220.252 148.676 219.432 148.595 218.444 148.514L218.41 148.508C217.736 148.307 217.717 141.979 218.003 120.319C218.149 109.224 218.315 96.65 218.118 88.642L218.116 88.5634L218.175 88.5115C225.494 82.1402 234.893 79.7518 244.641 81.7866L244.714 81.8016L244.751 81.8653C248.784 88.694 254.872 98.5304 260.76 108.043C274.276 129.88 278.142 136.302 277.718 136.786L277.667 136.826C276.744 137.288 276.051 137.643 275.462 137.946C273.489 138.958 272.673 139.377 268.285 141.185L268.177 141.23L268.098 141.143C254.384 126.103 242.971 109.301 235.912 93.7692C235.087 99.0717 234.086 105.996 233.028 113.312C229.985 134.349 227.929 148.202 227.102 149.045L227.052 149.095Z" fill="#2F2E41"/>
<path d="M248.353 21.4757C249.734 15.768 250.904 9.33022 248.3 4.0733C246.492 0.4258 239.806 -0.802519 235.973 0.511533C232.141 1.82558 229.37 5.39071 228.151 9.27781C226.932 13.1649 227.074 17.3536 227.605 21.3945C234.654 21.259 241.703 21.1234 248.353 21.4757Z" fill="#2F2E41"/>
<path d="M236.458 21.4741C240.998 21.4741 244.678 17.7909 244.678 13.2473C244.678 8.70378 240.998 5.02051 236.458 5.02051C231.918 5.02051 228.238 8.70378 228.238 13.2473C228.238 17.7909 231.918 21.4741 236.458 21.4741Z" fill="#FFB8B8"/>
<path d="M246.506 11.5527C246.533 10.1681 246.28 8.79231 245.765 7.50719C245.249 6.22208 244.481 5.0538 243.505 4.07177C242.53 3.08975 241.367 2.31402 240.086 1.79068C238.805 1.26733 237.432 1.00706 236.048 1.02531C234.664 1.04357 233.299 1.33998 232.032 1.89694C230.765 2.4539 229.623 3.26004 228.674 4.26747C227.724 5.27489 226.987 6.46303 226.505 7.76131C226.024 9.05958 225.808 10.4415 225.87 11.8249C232.906 11.8399 239.941 11.8548 246.506 11.5527Z" fill="#2F2E41"/>
<path d="M230.747 90.2604C238.925 90.2239 247.049 91.5852 254.768 94.2856C255.037 81.3175 250.576 68.3255 242.511 58.6061L242.451 58.5335L242.481 58.4443C244.636 52.2142 246.862 45.7745 248.852 39.3667L248.822 39.2591C247.426 34.2938 244.431 29.2764 239.665 23.9197C239.148 23.3836 238.447 23.0644 237.703 23.0267C236.96 22.989 236.23 23.2357 235.661 23.7167C227.19 31.4894 222.584 43.1352 223.641 54.1099L223.644 54.1421L223.634 54.1733C219.903 66.8275 218.548 73.3271 217.352 79.0615C216.481 83.2447 215.726 86.8669 214.21 92.0423C219.643 90.8591 225.187 90.2618 230.747 90.2604Z" fill="#414141"/>
<path opacity="0.1" d="M252.787 50.2583L240.647 76.7119L233.711 69.6855L252.787 50.2583Z" fill="black"/>
<path d="M215.537 64.952L216.383 66.5981C216.391 66.6133 216.392 66.631 216.387 66.6473C216.382 66.6636 216.371 66.6772 216.355 66.685L216.315 66.7061L220.724 75.2814C220.846 75.5187 220.869 75.7948 220.788 76.0489C220.706 76.3031 220.527 76.5145 220.29 76.6366L214.937 79.3943C214.819 79.4547 214.691 79.4915 214.559 79.5024C214.428 79.5132 214.295 79.4981 214.17 79.4578C214.044 79.4174 213.928 79.3527 213.827 79.2673C213.726 79.1819 213.643 79.0775 213.583 78.96L213.583 78.9599L209.328 70.6853L209.298 70.7006C209.288 70.7061 209.275 70.7072 209.264 70.7035C209.252 70.6999 209.243 70.6918 209.237 70.6811L208.755 69.7442C208.752 69.7389 208.751 69.7331 208.75 69.7271C208.75 69.7211 208.751 69.7151 208.752 69.7094C208.754 69.7037 208.757 69.6984 208.761 69.6938C208.765 69.6893 208.77 69.6855 208.775 69.6827L208.804 69.6675L208.623 69.3146L208.593 69.33C208.582 69.3357 208.569 69.3368 208.557 69.3329C208.545 69.329 208.535 69.3205 208.529 69.3092L208.054 68.3851C208.048 68.3739 208.047 68.3608 208.051 68.3488C208.055 68.3368 208.063 68.3268 208.074 68.321L208.104 68.3056L207.856 67.8239L207.826 67.8395C207.816 67.8446 207.805 67.8456 207.794 67.8422C207.783 67.8388 207.774 67.8313 207.769 67.8214L207.769 67.8213L207.51 67.317C207.505 67.307 207.504 67.2954 207.507 67.2846C207.511 67.2739 207.518 67.265 207.528 67.2598L207.558 67.2442L207.033 66.2231C206.911 65.9859 206.888 65.7098 206.97 65.4558C207.051 65.2017 207.23 64.9903 207.467 64.8682L212.821 62.1106C213.058 61.9885 213.334 61.9656 213.587 62.047C213.841 62.1284 214.053 62.3074 214.175 62.5446L215.409 64.9451L215.45 64.9241C215.465 64.9163 215.483 64.9149 215.499 64.9201C215.515 64.9253 215.529 64.9368 215.537 64.952Z" fill="#414141"/>
<path d="M213.838 62.9421L220.334 75.5761C220.412 75.7267 220.426 75.9018 220.374 76.063C220.323 76.2242 220.209 76.3582 220.059 76.4357L214.934 79.0754C214.784 79.1531 214.609 79.1678 214.448 79.1165C214.287 79.0652 214.154 78.9521 214.076 78.8019L214.075 78.8002L207.579 66.1661C207.54 66.0916 207.517 66.0102 207.51 65.9267C207.503 65.8431 207.513 65.759 207.538 65.6792C207.564 65.5993 207.605 65.5253 207.659 65.4613C207.713 65.3974 207.779 65.3447 207.854 65.3063L207.854 65.3063L208.621 64.9112L208.671 65.0097C208.703 65.0711 208.746 65.1257 208.799 65.1703C208.852 65.2149 208.913 65.2487 208.978 65.2698C209.044 65.2908 209.113 65.2988 209.182 65.2931C209.251 65.2874 209.317 65.2682 209.379 65.2366L211.985 63.8941C212.109 63.8303 212.202 63.7198 212.245 63.5871C212.288 63.4543 212.276 63.31 212.212 63.1861L212.161 63.0876L212.979 62.6666C213.129 62.589 213.304 62.5745 213.465 62.6261C213.626 62.6777 213.76 62.7912 213.837 62.9417L213.838 62.9421Z" fill="#FFE031"/>
<path d="M225.721 78.3768C226.212 78.3426 226.689 78.2011 227.119 77.9623C227.55 77.7235 227.922 77.3932 228.211 76.9947C228.5 76.5961 228.698 76.139 228.791 75.6555C228.885 75.172 228.871 74.674 228.751 74.1964L238.755 67.6367L233.05 65.1699L224.425 71.7773C223.637 72.0319 222.969 72.5671 222.549 73.2815C222.128 73.9958 221.984 74.8397 222.144 75.6532C222.304 76.4667 222.756 77.1932 223.415 77.6952C224.075 78.1972 224.895 78.4397 225.721 78.3768Z" fill="#FFB8B8"/>
<path d="M225.346 73.6512L225.22 73.5619C222.839 71.8082 220.196 69.9945 217.64 68.2406L217.487 68.1353L217.608 67.9936C223.063 61.6053 228.525 54.9326 233.807 48.4775C233.803 48.4672 233.8 48.4597 233.797 48.4543L233.847 48.4289L233.868 48.4032L233.879 48.4126L233.911 48.3964L233.767 48.4075L232.139 35.6282C230.668 33.6203 230.386 29.6337 232.314 26.8509C234.31 23.9681 238.533 23.0033 241.352 24.7854C242.09 25.2815 242.708 25.9376 243.159 26.7049C243.609 27.4722 243.882 28.3311 243.956 29.2181C244.061 30.0084 243.988 30.8121 243.743 31.5705C243.497 32.3289 243.086 33.0229 242.538 33.6018C243.23 40.3648 243.257 46.4099 243.283 52.2572L243.283 52.3156L243.247 52.3637C237.615 59.5243 231.43 66.6468 225.447 73.5348L225.346 73.6512Z" fill="#414141"/>
<path d="M118.729 38.7642C128.936 38.7642 137.211 30.4825 137.211 20.2664C137.211 10.0503 128.936 1.76855 118.729 1.76855C108.522 1.76855 100.247 10.0503 100.247 20.2664C100.247 30.4825 108.522 38.7642 118.729 38.7642Z" fill="#FFE031"/>
<path d="M116.968 28.0746L111.436 20.9559L114.653 18.4517L117.272 21.8223L126.12 12.4736L129.079 15.2794L116.968 28.0746Z" fill="white"/>
<path d="M298.609 156.854H205.203C205.1 156.854 205 156.813 204.927 156.74C204.854 156.666 204.812 156.567 204.812 156.463C204.812 156.359 204.854 156.26 204.927 156.186C205 156.113 205.1 156.072 205.203 156.072H298.609C298.713 156.072 298.812 156.113 298.886 156.186C298.959 156.26 299 156.359 299 156.463C299 156.567 298.959 156.666 298.886 156.74C298.812 156.813 298.713 156.854 298.609 156.854Z" fill="#414141"/>
</svg>
