<svg width="16" height="16" viewBox="0 0 16 16" fill="none" xmlns="http://www.w3.org/2000/svg">
<path d="M15.928 12.7528L15.8484 12.5128C15.6597 11.9522 15.0415 11.3675 14.4736 11.2135L12.3715 10.6392C11.8015 10.4842 10.9883 10.6927 10.5712 11.1097L9.81046 11.8705C7.04565 11.1234 4.87761 8.95529 4.13152 6.19101L4.89233 5.4302C5.3094 5.01313 5.5179 4.20105 5.36281 3.63101L4.78962 1.52791C4.63453 0.958908 4.04876 0.340678 3.48921 0.154139L3.24926 0.0734609C2.68864 -0.113078 1.8891 0.0755734 1.47207 0.492611L0.334057 1.63166C0.130753 1.83389 0.000816571 2.41232 0.000816571 2.41443C-0.0389859 6.02751 1.37774 9.50854 3.93348 12.0643C6.48295 14.6138 9.95093 16.0284 13.5535 15.9981C13.5723 15.9981 14.1675 15.8702 14.3708 15.6679L15.5089 14.5299C15.9259 14.1129 16.1145 13.3134 15.928 12.7528Z" fill="#A7A7A7"/>
</svg>
