<svg width="121" height="113" viewBox="0 0 121 113" fill="none" xmlns="http://www.w3.org/2000/svg">
<rect width="121" height="113" rx="10" fill="white"/>
<g clip-path="url(#clip0_458_726)">
<path d="M116.202 23.4829H95.7178C95.2771 23.4829 94.9199 23.8401 94.9199 24.2808C94.9199 24.7214 95.2771 25.0786 95.7178 25.0786H116.202C116.643 25.0786 117 24.7214 117 24.2808C117 23.8401 116.643 23.4829 116.202 23.4829Z" fill="#414141"/>
<path d="M82.5251 23.4829H70.6819C70.2413 23.4829 69.884 23.8401 69.884 24.2808V24.3155C69.884 24.7561 70.2413 25.1133 70.6819 25.1133H82.5251C82.9657 25.1133 83.3229 24.7561 83.3229 24.3155V24.2808C83.3229 23.8401 82.9657 23.4829 82.5251 23.4829Z" fill="#414141"/>
<path d="M90.32 23.4829H85.6265C85.1858 23.4829 84.8286 23.8401 84.8286 24.2808C84.8286 24.7214 85.1858 25.0786 85.6265 25.0786H90.32C90.7607 25.0786 91.1179 24.7214 91.1179 24.2808C91.1179 23.8401 90.7607 23.4829 90.32 23.4829Z" fill="#414141"/>
<path d="M92.2558 96.3218H13.6379C13.1264 96.3218 12.7117 96.7365 12.7117 97.248C12.7117 97.7595 13.1264 98.1742 13.6379 98.1742H92.2558C92.7673 98.1742 93.182 97.7595 93.182 97.248C93.182 96.7365 92.7673 96.3218 92.2558 96.3218Z" fill="#414141" stroke="#414141" stroke-width="0.75" stroke-miterlimit="10"/>
<path d="M5.69385 71.626H94.6077V80.961C94.6072 81.5209 94.4963 82.0751 94.2814 82.5921C94.0664 83.109 93.7515 83.5784 93.3549 83.9735C92.9582 84.3685 92.4875 84.6815 91.9697 84.8943C91.4519 85.1072 90.8972 85.2158 90.3373 85.214H9.96418C9.40434 85.2158 8.84964 85.1072 8.33185 84.8943C7.81405 84.6815 7.34334 84.3685 6.94667 83.9735C6.54999 83.5784 6.23515 83.109 6.02017 82.5921C5.80519 82.0751 5.6943 81.5209 5.69385 80.961V71.626Z" fill="#FFE031" stroke="#414141" stroke-width="2" stroke-miterlimit="10"/>
<path d="M22.4802 97.248C26.312 97.248 29.4182 94.1418 29.4182 90.3101C29.4182 86.4783 26.312 83.3721 22.4802 83.3721C18.6485 83.3721 15.5422 86.4783 15.5422 90.3101C15.5422 94.1418 18.6485 97.248 22.4802 97.248Z" fill="#F2F2F2" stroke="#414141" stroke-width="2" stroke-miterlimit="10"/>
<path d="M78.1856 97.248C82.0173 97.248 85.1235 94.1418 85.1235 90.3101C85.1235 86.4783 82.0173 83.3721 78.1856 83.3721C74.3538 83.3721 71.2476 86.4783 71.2476 90.3101C71.2476 94.1418 74.3538 97.248 78.1856 97.248Z" fill="#F2F2F2" stroke="#414141" stroke-width="2" stroke-miterlimit="10"/>
<path d="M62.4667 20.4367L62.4813 21.1656L63.1798 21.3746C82.2835 27.0907 95.5635 45.6636 94.0251 66.1121L50.9547 61.8715L50.9546 61.8715L7.88088 57.6275C10.4981 36.1707 28.8542 19.9721 50.1152 19.5847L50.8443 19.5715L51.0545 18.8732C51.4549 17.5431 52.3171 16.3998 53.4857 15.6489C54.6543 14.898 56.0526 14.5891 57.4288 14.7776C58.805 14.9661 60.0686 15.6398 60.9922 16.6773C61.9158 17.7148 62.4387 19.0479 62.4667 20.4367Z" fill="#FFE031" stroke="#414141" stroke-width="2" stroke-miterlimit="10"/>
<path d="M108.467 70H99.9158C99.41 70 99 70.41 99 70.9158C99 71.4216 99.41 71.8316 99.9158 71.8316H108.467C108.973 71.8316 109.383 71.4216 109.383 70.9158C109.383 70.41 108.973 70 108.467 70Z" fill="#414141"/>
<path d="M112.501 96H98.4995C97.6714 96 97 96.6716 97 97.5C97 98.3284 97.6714 99 98.4995 99H112.501C113.329 99 114 98.3284 114 97.5C114 96.6716 113.329 96 112.501 96Z" fill="#414141"/>
<path d="M64 27.5C70.3333 29.1667 83.9 37.2 87.5 56" stroke="#414141" stroke-width="2" stroke-linecap="round"/>
</g>
<defs>
<clipPath id="clip0_458_726">
<rect width="112" height="85.3061" fill="white" transform="translate(5 13)"/>
</clipPath>
</defs>
</svg>
